<svg width="62" height="14" viewBox="0 0 62 14" fill="none" xmlns="http://www.w3.org/2000/svg">
<path fill-rule="evenodd" clip-rule="evenodd" d="M2.988 5.82399V13.144H0V0.855985H2.988V2.64398C3.42 1.93998 3.96 1.40198 4.608 1.02998C5.256 0.657985 5.968 0.471985 6.744 0.471985C7.152 0.471985 7.57 0.525985 7.998 0.633985C8.426 0.741985 8.792 0.883985 9.096 1.05998L7.86 3.59198C7.596 3.43198 7.29 3.30398 6.942 3.20798C6.594 3.11198 6.272 3.06398 5.976 3.06398C5.464 3.06398 4.98 3.19598 4.524 3.45998C4.068 3.72398 3.698 4.06398 3.414 4.47998C3.13 4.89598 2.988 5.34399 2.988 5.82399ZM20.054 12.7C18.986 13.252 17.788 13.528 16.46 13.528C15.132 13.528 13.934 13.252 12.866 12.7C11.798 12.148 10.952 11.38 10.328 10.396C9.704 9.41198 9.392 8.27998 9.392 6.99998C9.392 5.71198 9.704 4.57798 10.328 3.59798C10.952 2.61798 11.796 1.85198 12.86 1.29998C13.924 0.747985 15.124 0.471985 16.46 0.471985C17.788 0.471985 18.986 0.747985 20.054 1.29998C21.122 1.85198 21.966 2.61798 22.586 3.59798C23.206 4.57798 23.516 5.71198 23.516 6.99998C23.516 8.27998 23.206 9.41198 22.586 10.396C21.966 11.38 21.122 12.148 20.054 12.7ZM16.46 10.96C15.716 10.96 15.044 10.79 14.444 10.45C13.844 10.11 13.372 9.64198 13.028 9.04599C12.684 8.44999 12.512 7.76798 12.512 6.99998C12.512 6.22398 12.684 5.53798 13.028 4.94199C13.372 4.34598 13.844 3.87998 14.444 3.54398C15.044 3.20798 15.716 3.03998 16.46 3.03998C17.212 3.03998 17.886 3.20798 18.482 3.54398C19.078 3.87998 19.548 4.34598 19.892 4.94199C20.236 5.53798 20.408 6.22398 20.408 6.99998C20.408 7.76798 20.236 8.44999 19.892 9.04599C19.548 9.64198 19.078 10.11 18.482 10.45C17.886 10.79 17.212 10.96 16.46 10.96ZM35.758 12.7C34.69 13.252 33.492 13.528 32.164 13.528C30.836 13.528 29.638 13.252 28.57 12.7C27.502 12.148 26.656 11.38 26.032 10.396C25.408 9.41198 25.096 8.27998 25.096 6.99998C25.096 5.71198 25.408 4.57798 26.032 3.59798C26.656 2.61798 27.5 1.85198 28.564 1.29998C29.628 0.747985 30.828 0.471985 32.164 0.471985C33.492 0.471985 34.69 0.747985 35.758 1.29998C36.826 1.85198 37.67 2.61798 38.29 3.59798C38.91 4.57798 39.22 5.71198 39.22 6.99998C39.22 8.27998 38.91 9.41198 38.29 10.396C37.67 11.38 36.826 12.148 35.758 12.7ZM32.164 10.96C31.42 10.96 30.748 10.79 30.148 10.45C29.548 10.11 29.076 9.64198 28.732 9.04599C28.388 8.44999 28.216 7.76798 28.216 6.99998C28.216 6.22398 28.388 5.53798 28.732 4.94199C29.076 4.34598 29.548 3.87998 30.148 3.54398C30.748 3.20798 31.42 3.03998 32.164 3.03998C32.916 3.03998 33.59 3.20798 34.186 3.54398C34.782 3.87998 35.252 4.34598 35.596 4.94199C35.94 5.53798 36.112 6.22398 36.112 6.99998C36.112 7.76798 35.94 8.44999 35.596 9.04599C35.252 9.64198 34.782 10.11 34.186 10.45C33.59 10.79 32.916 10.96 32.164 10.96ZM44.772 5.36798V13.144H41.784V0.855985H44.772V2.33198C45.34 1.69998 45.938 1.23198 46.566 0.927985C47.194 0.623985 47.884 0.471985 48.636 0.471985C49.604 0.471985 50.466 0.691985 51.222 1.13198C51.978 1.57198 52.512 2.16399 52.824 2.90798C53.376 2.12399 54.004 1.52198 54.708 1.10198C55.412 0.681985 56.228 0.471985 57.156 0.471985C58.036 0.471985 58.818 0.653985 59.502 1.01798C60.186 1.38198 60.726 1.90198 61.122 2.57798C61.518 3.25398 61.716 4.06798 61.716 5.01998V13.144H58.728V5.83598C58.728 4.92398 58.49 4.20198 58.014 3.66998C57.538 3.13798 56.9 2.87198 56.1 2.87198C55.556 2.87198 55.068 2.98798 54.636 3.21998C54.204 3.45198 53.864 3.75998 53.616 4.14398C53.368 4.52798 53.244 4.93998 53.244 5.37998V13.144H50.256V5.71598C50.256 4.85198 50.024 4.16198 49.56 3.64598C49.096 3.12998 48.464 2.87198 47.664 2.87198C47.112 2.87198 46.618 2.98798 46.182 3.21998C45.746 3.45198 45.402 3.75798 45.15 4.13798C44.898 4.51798 44.772 4.92798 44.772 5.36798Z" fill="white"/>
</svg>
